HIERARCHY
ROOT Hips
{
	OFFSET -3.958830 18.904000 13.208200
	CHANNELS 6 Xposition Yposition Zposition Zrotation Yrotation Xrotation 
	JOINT LHipJoint
	{
		OFFSET 0.000000 0.000000 0.000000
		CHANNELS 3 Zrotation Yrotation Xrotation
		JOINT LeftUpLeg
		{
			OFFSET 1.800000 -1.400000 0.085000
			CHANNELS 3 Zrotation Yrotation Xrotation
			JOINT LeftLeg
			{
				OFFSET 2.215000 -6.000000 0.000000
				CHANNELS 3 Zrotation Yrotation Xrotation
				JOINT LeftFoot
				{
					OFFSET 2.500000 -6.900000 0.000000
					CHANNELS 3 Zrotation Yrotation Xrotation
					JOINT LeftToeBase
					{
						OFFSET 0.200000 -0.500000 1.950000
						CHANNELS 3 Zrotation Yrotation Xrotation
						End Site
						{
							OFFSET 0.000000 0.000000 0.000000
						}
					}
				}
			}
		}
	}
	JOINT RHipJoint
	{
		OFFSET 0.000000 0.000000 0.000000
		CHANNELS 3 Zrotation Yrotation Xrotation
		JOINT RightUpLeg
		{
			OFFSET -1.800000 -1.400000 0.085000
			CHANNELS 3 Zrotation Yrotation Xrotation
			JOINT RightLeg
			{
				OFFSET -2.215000 -6.000000 0.000000
				CHANNELS 3 Zrotation Yrotation Xrotation
				JOINT RightFoot
				{
					OFFSET -2.500000 -6.900000 0.000000
					CHANNELS 3 Zrotation Yrotation Xrotation
					JOINT RightToeBase
					{
						OFFSET -0.200000 -0.500000 1.950000
						CHANNELS 3 Zrotation Yrotation Xrotation
						End Site
						{
							OFFSET 0.000000 0.000000 0.000000
						}
					}
				}
			}
		}
	}
	JOINT LowerBack
	{
		OFFSET 0.000000 0.000000 0.000000
		CHANNELS 3 Zrotation Yrotation Xrotation
		JOINT Spine
		{
			OFFSET -0.087000 1.940000 -0.288900
			CHANNELS 3 Zrotation Yrotation Xrotation
			JOINT Spine1
			{
				OFFSET 0.000000 1.950000 0.060000
				CHANNELS 3 Zrotation Yrotation Xrotation
				JOINT Neck
				{
					OFFSET 0.000000 0.000000 0.000000
					CHANNELS 3 Zrotation Yrotation Xrotation
					JOINT Neck1
					{
						OFFSET 0.000000 1.600000 0.340000
						CHANNELS 3 Zrotation Yrotation Xrotation
						JOINT Head
						{
							OFFSET 0.000000 1.667000 -0.240000
							CHANNELS 3 Zrotation Yrotation Xrotation
							End Site
							{
								OFFSET 0.000000 0.000000 0.000000
							}
						}
					}
				}
				JOINT LeftShoulder
				{
					OFFSET 0.000000 0.000000 0.000000
					CHANNELS 3 Zrotation Yrotation Xrotation
					JOINT LeftArm
					{
						OFFSET 2.700000 1.550000 -0.730000
						CHANNELS 3 Zrotation Yrotation Xrotation
						JOINT LeftForeArm
						{
							OFFSET 5.450000 0.000000 0.000000
							CHANNELS 3 Zrotation Yrotation Xrotation
							JOINT LeftHand
							{
								OFFSET 3.450000 0.000000 0.000000
								CHANNELS 3 Zrotation Yrotation Xrotation
								JOINT LeftHandIndex1
								{
									OFFSET 0.750000 0.000000 0.000000
									CHANNELS 3 Zrotation Yrotation Xrotation
									End Site
									{
										OFFSET 0.000000 0.000000 0.000000
									}
								}
							}
						}
					}
				}
				JOINT RightShoulder
				{
					OFFSET 0.000000 0.000000 0.000000
					CHANNELS 3 Zrotation Yrotation Xrotation
					JOINT RightArm
					{
						OFFSET -2.700000 1.550000 -0.730000
						CHANNELS 3 Zrotation Yrotation Xrotation
						JOINT RightForeArm
						{
							OFFSET -5.450000 0.000000 0.000000
							CHANNELS 3 Zrotation Yrotation Xrotation
							JOINT RightHand
							{
								OFFSET -3.450000 0.000000 0.000000
								CHANNELS 3 Zrotation Yrotation Xrotation
								JOINT RightHandIndex1
								{
									OFFSET -0.750000 0.000000 0.000000
									CHANNELS 3 Zrotation Yrotation Xrotation
									End Site
									{
										OFFSET 0.000000 0.000000 0.000000
									}
								}
							}
						}
					}
				}
			}
		}
	}
}
MOTION
Frames: 4
Frame Time: 0.016667
-0.070130 15.524390 -1.308360 0.329497 -10.142491 -0.809192 -15.520515 11.806996 3.883552 -4.707858 -7.514832 -10.016882 -30.389984 22.654148 40.522261 1.789518 11.385867 1.049723 0.443900 -0.146020 0.618950 18.413573 -7.079240 5.172837 -6.969247 12.519481 -50.097487 29.667932 -25.077837 52.785517 -2.082398 -11.110364 0.865726 -0.227110 -0.029400 0.297350 -3.407963 -4.759388 -9.479205 18.164468 -10.171621 33.361487 1.648418 -5.198309 -2.125976 1.348823 -6.835743 -10.846540 -18.505918 8.507648 40.918908 -15.527350 11.287290 -0.129960 -7.014563 3.537908 3.568858 -29.951248 4.512814 -3.352172 -76.230247 -47.748711 32.687167 -3.427789 3.734227 0.585460 0.048730 0.041010 0.160110 4.898753 0.254198 5.246425 59.703987 -3.449317 -21.260216 -2.497993 76.755194 -5.460722 1.798734 -1.917490 -0.051020 -0.153200 -0.238550 -0.346620 
-0.059740 15.555800 -1.310350 0.194552 -11.753220 -0.797862 -15.516579 11.827021 3.840317 -4.867159 -6.971055 -10.102057 -30.460874 22.429461 39.602123 1.834665 11.150453 1.114111 0.468360 -0.082600 0.600590 18.418742 -7.074822 5.220853 -6.811969 13.191041 -50.185288 29.193481 -24.580565 53.059600 -2.080301 -11.051444 0.888061 -0.227220 -0.055930 0.316250 -3.436404 -4.718119 -9.452463 18.390814 -10.328900 34.238727 0.898594 -5.164738 -2.958790 1.638290 -7.271072 -10.927273 -19.039564 9.459965 39.834549 -15.580670 11.965190 -0.325580 -7.604728 3.741098 3.616469 -30.270762 5.905512 -3.927973 -74.438539 -45.791050 30.057824 -3.395785 3.783845 0.538770 0.036420 0.068060 0.182290 4.949790 0.478802 5.244083 60.521010 -2.879298 -21.036240 -2.184833 77.415683 -5.402526 1.839490 -1.957004 0.016790 -0.200660 -0.273200 -0.304380 
-0.046480 15.625050 -1.308160 -0.089425 -13.852036 0.001639 -15.478313 11.764394 3.766383 -5.255605 -6.476911 -10.996125 -29.753685 21.864073 38.909532 1.837283 10.828911 1.188786 0.503770 -0.008730 0.578600 18.464232 -7.105707 5.309743 -6.972213 13.931254 -50.817550 29.094267 -24.039025 52.863786 -2.061207 -10.951615 0.919671 -0.221490 -0.069080 0.355900 -3.588227 -4.459183 -9.393049 19.260748 -10.346169 33.440551 -0.210448 -5.166482 -3.156396 1.705123 -7.736249 -10.777931 -19.572604 10.538425 38.573211 -15.141890 12.235750 -0.456770 -8.807753 3.770158 3.333884 -30.855158 6.417737 -4.456082 -70.023037 -41.381151 24.535309 -3.394427 3.823578 0.474670 0.041110 0.085090 0.202860 5.955915 0.716804 5.219895 61.262224 -2.655071 -21.016562 -0.993620 79.909248 -5.315382 1.860352 -2.021287 0.101640 -0.255280 -0.295940 -0.256410 
-0.056000 15.713780 -1.276220 -0.141188 -15.026224 1.360391 -15.436522 11.715504 3.687868 -5.222211 -6.111666 -11.993870 -28.915253 21.228338 38.168159 1.793759 10.535250 1.291271 0.492080 -0.012550 0.554020 18.508902 -7.147430 5.381672 -7.790330 14.080137 -51.560574 29.260962 -23.759788 52.360334 -2.008972 -10.867263 0.961686 -0.224970 -0.034410 0.346560 -3.734581 -4.239214 -9.331691 19.710987 -10.218506 30.618943 -0.735259 -5.429488 -3.254849 1.547092 -7.969017 -10.599300 -19.711776 11.197725 37.710052 -14.494410 12.540000 1.234260 -9.835064 4.010449 3.154134 -32.630372 7.077584 -4.929583 -64.636761 -35.904443 18.553986 -3.412999 3.776603 0.428050 0.067970 0.056990 0.223980 7.226554 0.487828 5.122404 62.235865 -2.799748 -20.729296 3.223601 81.816947 -2.786403 1.892130 -2.094363 0.105500 -0.255620 -0.309410 -0.233080 
